<svg version="1.1" id="Layer_1" xmlns="http://www.w3.org/2000/svg" xmlns:xlink="http://www.w3.org/1999/xlink" x="0px" y="0px"
	 width="250px" height="250px" viewBox="0 0 250 250" enable-background="new 0 0 250 250" xml:space="preserve">
<g opacity="0.5">
	<path fill-rule="evenodd" clip-rule="evenodd" d="M38.771,190.746c3.041-6.396,6.18-12.677,9.008-19.096
		c1.313-2.981,2.021-6.23,3-9.359c0.979-3.132,2.057-6.238,2.897-9.408c0.585-2.211,0.841-4.51,1.248-6.768
		c1.573-8.748,3.178-17.491,4.71-26.247c1.167-6.675,3.935-12.85,5.868-19.283c1.492-4.966,4.181-9.263,6.999-13.479
		c3.646-5.457,8.385-9.945,13.826-13.544c4.897-3.238,10.195-5.747,15.914-7.388c4.289-1.231,8.653-1.818,13.029-2.444
		c5.475-0.781,10.888,0.142,16.299,0.746c5.751,0.643,11.234,2.339,16.415,4.897c4.244,2.095,8.328,4.501,11.584,8.026
		c4.254,4.12,6.322,11.786,6.461,12.157c8.631-15.076,12.074-31.555,14.95-48.555c6.968,4.415,13.708,8.683,20.579,13.037
		c-10.776,12.333-21.342,24.569-29.385,39.035c1.318,0,2.373-0.092,3.406,0.018c2.483,0.267,5.011,0.41,7.424,1.001
		c4.039,0.989,7.779,2.692,11.159,5.235c4.276,3.216,7.181,7.401,9.767,12.01c2.574,4.587,4.135,9.474,5.184,14.527
		c0.958,4.615,1.605,9.321,1.398,14.058c-0.32,7.381-0.898,14.754-3.151,21.846c-0.892,2.804-2.128,5.514-3.374,8.188
		c-2.352,5.038-5.76,9.268-9.861,13.035c-3.025,2.779-6.647,4.506-10.088,6.568c-0.611,0.367-1.334,0.547-2.005,0.812
		c-0.083-0.081-0.166-0.162-0.249-0.243c0.49-0.809,0.982-1.616,1.473-2.424c1.938-3.188,3.197-6.576,3.623-10.333
		c0.58-5.147-0.35-10.018-2.566-14.579c-1.24-2.551-3.025-4.828-5.16-6.834c-2.203-2.068-4.636-3.77-7.434-4.688
		c-2.898-0.952-5.955-1.519-8.984-1.954c-3.059-0.439-6.174-0.072-9.127,0.744c-4.227,1.17-8.219,2.798-11.713,5.721
		c-3.313,2.771-5.788,6.053-7.549,9.865c-0.967,2.09-1.512,4.432-1.895,6.718c-0.361,2.155-0.392,4.392-0.344,6.587
		c0.131,5.972,2.09,11.311,6.282,15.605c3.508,3.592,7.819,5.959,12.8,6.891c2.248,0.422,4.545,0.579,6.819,0.865
		c0.44,0.055,0.877,0.153,1.396,0.535c-2.958,0.948-5.864,2.143-8.887,2.784c-4.241,0.901-8.555,1.521-12.863,2.017
		c-3.342,0.385-6.724,0.435-10.09,0.562c-3.289,0.124-6.585,0.31-9.87,0.191c-5.246-0.188-10.483-0.612-15.726-0.92
		c-1.806-0.105-3.635-0.021-5.419-0.267c-3.813-0.527-7.607-1.182-11.398-1.85c-3.309-0.58-6.658-1.039-9.888-1.924
		c-6.722-1.841-13.453-3.706-20.036-5.98C49.654,195.535,44.284,193.021,38.771,190.746z"/>
</g>
</svg>
